<svg width="202" height="54" viewBox="0 0 202 54" fill="none" xmlns="http://www.w3.org/2000/svg">
<path d="M49.0329 27.0505C49.9927 26.5283 50.5916 26.0579 50.4658 24.9696C50.3154 23.6981 50.3346 22.4047 50.2908 21.568C50.031 20.1188 49.3611 18.8855 48.9673 17.6441C48.5379 16.2987 48.2918 14.9506 47.652 13.742C47.4195 13.299 47.0777 12.908 46.591 12.8697C46.1917 12.8369 45.7296 13.2006 45.3386 13.1186C44.6249 12.9627 44.6139 12.4377 45.0049 11.8662C45.8718 10.6002 46.0769 10.7533 45.0049 9.35599C44.7233 8.99232 44.026 8.93762 43.7525 8.56573C43.2986 7.95048 42.9704 7.73993 42.2266 7.96962C41.0973 8.31962 41.2012 8.21845 41.5157 7.06179C41.7618 6.17311 41.6004 6.01449 40.8867 5.42662C39.8038 4.53794 38.7155 3.63011 37.5068 2.97108C36.2981 2.30937 34.8953 2.02773 33.5827 1.55464C33.3585 1.47261 33.0741 1.56832 32.8471 1.49175C32.4424 1.35777 32.4479 1.35777 32.2592 1.7488C31.54 3.24452 30.6786 2.90545 30.0989 1.50543C29.6915 0.518295 28.7672 0.206579 27.7171 0.105411C25.9315 -0.0641071 24.1704 -0.0203926 22.4312 0.173762C20.6893 0.367917 18.942 0.657775 17.241 1.2265C16.675 1.41519 16.5301 1.92653 16.418 2.40504C16.3195 2.82342 16.243 3.2418 16.0461 3.6164C15.8683 3.95547 15.5156 4.33829 15.1081 4.2043C14.5366 4.01561 14.0362 3.60819 13.4482 3.51249C13.0681 3.44685 12.4939 3.2582 12.1739 3.44139C11.7474 3.68747 11.3426 3.99375 10.9379 4.27265C10.5277 4.54883 10.2789 5.04924 9.88785 5.35003C9.49681 5.65353 8.96084 5.77659 8.58348 6.0938C8.40028 6.41647 8.27722 6.76647 8.20065 7.13836C8.13776 7.45554 8.10494 7.78914 8.09948 8.13367C7.85885 8.61494 7.42677 9.10439 6.92088 9.28215C6.89353 9.28215 6.07319 9.2849 5.38406 9.61847C5.13794 9.93018 5.09148 10.4142 4.85631 10.7396C4.47895 11.2646 4.28478 11.5189 4.6649 12.1095C4.88638 12.4541 4.84264 12.9654 4.94384 13.3674C5.0368 13.7392 4.85085 13.9498 4.47623 13.9443C4.07698 13.9389 3.68868 13.6791 3.28946 13.6545C2.86831 13.6299 2.65779 14.0756 2.48823 14.442C1.93859 15.6451 1.3862 16.8374 1.01433 18.0925C0.642429 19.3476 0.172072 20.6109 0.00529405 21.9261C-0.0494139 22.3773 0.327983 22.6973 0.762743 22.8887C0.907694 22.9515 1.05261 23.0145 1.20028 23.0719C1.96594 23.3672 1.88666 24.0754 1.8757 24.7863C1.86202 25.4535 1.65147 25.8446 1.11275 26.1262C0.00526284 26.7059 0.0244044 26.7934 0.161143 28.0348C0.322456 29.4868 0.431872 30.9443 0.839309 32.3169C1.24675 33.6924 2.12729 34.8873 2.77538 36.1916C3.03515 36.9026 3.39066 37.3893 4.06883 37.1432C5.28295 36.9545 5.56736 37.2171 5.14625 38.371C5.10522 38.4831 4.92201 38.5186 4.86731 38.6253C4.48447 39.3964 4.78253 40.1374 5.40327 40.7773C6.24278 41.6359 6.90727 42.6558 7.70575 43.5554C8.07493 43.9656 8.59175 43.9711 9.07576 43.714C10.2926 43.0715 10.5852 43.0414 10.5141 44.4058C10.4731 45.1879 10.4239 45.6992 11.1103 46.1477C12.8166 47.2661 14.5831 48.2833 16.5 48.9532C16.7817 49.0516 17.2192 48.8028 17.5091 48.6661C17.788 48.5376 18.0669 48.3434 18.3021 48.122C18.9502 47.5149 19.6803 47.4903 20.0167 48.2997C20.1315 48.5786 20.3202 48.863 20.3995 49.1501C20.5581 49.7407 20.6948 50.2001 21.2718 50.2821C22.6582 50.4763 24.072 50.4161 25.4584 50.4216C26.8476 50.4271 28.2832 50.5474 29.656 50.2274C31.5428 49.7872 33.3722 49.0434 35.2262 48.4583C35.6064 48.338 35.5353 47.9114 35.5216 47.4957C35.5161 47.3372 35.6419 47.1731 35.6337 47.0145C35.5708 45.8606 36.0931 45.4367 37.2498 45.598C37.567 45.6418 37.9608 45.464 38.2616 45.557C39.1859 45.8496 39.8558 45.7922 40.586 45.2098C42.1119 43.9875 43.4846 42.6148 44.7206 41.1026C45.4152 40.2577 45.2566 40.3069 44.7397 39.3416C44.6351 39.1462 44.6929 38.8897 44.7089 38.6802C44.7116 38.6456 44.7143 38.6106 44.7264 38.5781C44.8033 38.3718 45.1636 38.3073 45.3495 38.278H45.3605C45.407 38.2725 45.4507 38.2725 45.4945 38.2752C46.3258 38.36 46.7879 38.1467 47.1215 37.2963C47.8024 35.5654 48.8388 33.9767 49.5416 32.254C49.7166 31.8247 49.4733 31.3462 49.1396 31.0098C48.9838 30.854 48.6693 30.8403 48.5216 30.6735C47.5098 29.5524 47.7176 27.7615 49.0329 27.0505ZM46.405 26.6705C46.3011 28.2865 45.9538 29.8287 45.4835 31.3682C45.3659 31.7538 45.2483 32.1393 45.1253 32.5221C44.7561 33.6678 44.3405 34.7944 43.7361 35.8445C42.9349 37.2363 41.9559 38.5187 40.8566 39.7082C39.7738 40.8867 38.6143 42.0188 37.2716 42.9403C35.9591 43.8399 34.5398 44.6383 33.0112 45.2372C31.5455 45.8115 29.9622 46.1888 28.3242 46.4376C26.678 46.6865 25.0181 46.8478 23.402 46.7084C21.7586 46.5689 20.167 46.063 18.6138 45.5544C17.0551 45.0431 15.5047 44.4607 14.0991 43.6102C12.699 42.7653 11.3454 41.7836 10.1641 40.6352C8.9937 39.5031 8.12958 38.0812 7.23264 36.6867C6.36031 35.3277 5.66301 33.8702 5.1079 32.2924C4.5774 30.7858 3.95395 29.2435 3.7625 27.5646C3.58201 25.9923 3.92381 24.4227 4.10433 22.8614C4.28482 21.2973 4.24107 19.6648 4.76061 18.1746C5.27743 16.6925 5.97202 15.2214 6.80057 13.8733C7.62094 12.5416 8.9007 11.5299 10.0055 10.3896C11.0883 9.274 12.2533 8.25951 13.5905 7.38722C14.8839 6.545 16.1691 5.59342 17.6814 5.03563C18.6521 4.67742 19.7022 4.53797 20.7823 4.41763H20.7851C20.9328 4.40124 21.0777 4.38481 21.2254 4.36842C21.3046 4.36021 21.3839 4.34928 21.4633 4.34107C21.5426 4.33289 21.6191 4.32193 21.6984 4.31371C21.7941 4.30275 21.8926 4.28911 21.991 4.27543C22.1031 4.26176 22.2152 4.24808 22.3274 4.23169C23.9216 4.00471 25.4913 3.49613 27.039 3.63011C28.6278 3.76684 30.1099 4.48052 31.6002 4.95903C33.1097 5.44576 34.7176 5.7493 36.0767 6.545C37.4385 7.34347 38.6827 8.39075 39.8394 9.46266C40.9961 10.5345 41.997 11.7869 42.8966 13.094C43.7853 14.3846 44.6413 15.7518 45.2237 17.2339C45.7925 18.6804 46.2 20.2445 46.4297 21.8359C46.7141 23.4465 46.5089 25.0763 46.405 26.6705Z" fill="#444A3E"/>
<path d="M44.3399 28.8129C44.1484 29.9148 43.916 30.9895 43.5742 32.0204C43.4593 32.365 43.3307 32.704 43.1885 33.0377C42.6171 34.3775 41.7283 35.5232 40.8287 36.7073C39.9673 37.8366 39.0977 38.9932 37.9246 39.9667C36.9046 40.817 35.83 41.4925 34.769 42.1242C33.6369 42.7995 32.554 43.4804 31.3809 43.9042C30.1613 44.3444 28.9115 44.6507 27.6536 44.8148C26.393 44.9761 25.1133 44.9187 23.8226 44.7984C22.5839 44.6836 21.3698 44.3281 20.1064 43.9507C18.9278 43.5979 17.6097 43.4502 16.4119 42.8652C15.0884 42.2171 14.0821 41.1698 13.0047 40.344C11.8535 39.4662 10.7596 38.6076 9.88466 37.5357C8.99031 36.4448 8.36692 35.2005 7.75442 33.9209C7.15825 32.6767 6.65233 31.3942 6.31878 29.986C6.0042 28.6598 5.94132 27.2762 5.85385 25.816C5.78 24.5636 5.87028 23.3933 6.05894 22.1929C6.25042 20.976 6.38981 19.7784 6.82457 18.6217C7.25118 17.4841 7.77619 16.3877 8.4107 15.3103C9.17633 14.0115 10.1088 12.9122 11.0878 11.843C11.93 10.9243 12.8653 10.0957 13.877 9.36564C14.8396 8.66843 15.8323 8.00122 16.9479 7.47893C18.1757 6.90467 19.4008 6.39331 20.6669 6.0898C21.0607 5.99688 21.4572 5.93665 21.8564 5.90114C21.9412 5.89299 22.0232 5.88753 22.1053 5.88207C22.138 5.87926 22.1682 5.87926 22.1982 5.8766C22.9995 5.82467 23.8089 5.84644 24.6184 5.82733C25.92 5.79448 27.2407 5.66324 28.5752 5.89022C29.8359 6.10076 31.0253 6.53282 32.193 6.98945C33.3634 7.44608 34.5802 7.85356 35.6604 8.53438C36.8226 9.26444 37.8262 10.1915 38.7942 11.0884C39.6884 11.9169 40.5033 12.8275 41.2198 13.8146C41.8815 14.7252 42.5788 15.6631 43.0656 16.7158C43.082 16.7541 43.093 16.8006 43.0956 16.8525C43.1147 17.2846 42.7238 17.6292 42.2917 17.6073C41.5971 17.5718 41.3701 17.3913 40.5116 17.3229C40.3611 17.3093 40.2107 17.2682 40.0712 17.2053C39.9071 17.1314 39.7294 17.0631 39.6255 16.8882C39.1935 16.1553 38.7697 15.4143 38.3047 14.7061C37.7031 13.7955 37.0332 12.945 36.1937 12.2423C35.089 11.3208 33.9268 10.4978 32.7509 9.89896C31.5012 9.26182 30.0683 9.15513 28.7421 8.87073C27.4158 8.58915 26.084 8.58634 24.6839 8.64389C24.4816 8.65204 24.2711 8.65469 24.066 8.65469C22.9284 8.6575 21.7443 8.57819 20.5712 8.87073C19.3297 9.18248 18.2032 9.78961 17.1175 10.3994C16.0346 11.0037 15.1487 11.8896 14.1998 12.7427C13.1333 13.697 12.2446 14.6869 11.4788 15.7587C10.6667 16.8963 9.71232 17.9381 9.23659 19.2042C8.75806 20.4703 8.53919 21.8566 8.39434 23.2457C8.26028 24.5582 8.24117 25.9473 8.3998 27.3638C8.55296 28.761 8.80452 30.1337 9.27759 31.3724C9.76163 32.6438 10.4808 33.8443 11.2792 34.9545C12.056 36.0292 13.1443 36.8796 14.197 37.8037C15.0967 38.594 16.0046 39.2886 16.9781 39.8491C17.9981 40.4369 19.0672 40.8253 20.161 41.1698C21.2577 41.5116 22.3296 42.1159 23.4999 42.2198C24.6239 42.321 25.7997 42.023 26.9893 41.9082C28.6381 41.7496 30.2515 41.5035 31.7228 40.8883C33.1885 40.273 34.5748 39.387 35.8465 38.3151C36.9675 37.3717 37.6759 36.1412 38.4907 35.0721C39.3576 33.9346 40.2599 32.8791 40.7823 31.5994C41.2362 30.4756 41.3921 29.2779 41.5397 28.0419C41.5616 27.8669 41.5836 27.6919 41.6054 27.5168C41.7722 26.1825 41.7667 24.8345 41.63 23.377C41.5371 22.3735 41.5589 22.152 40.58 22.152C39.2564 22.152 37.9356 21.9359 36.6121 21.9359C35.2913 21.9359 33.9705 22.0753 32.6498 22.0753C31.3262 22.0753 30.0054 22.2449 28.6847 22.2449C27.3611 22.2449 26.0403 21.9796 24.7196 21.9796C23.396 21.9796 22.0752 22.3652 20.7545 22.3652C20.7243 22.3625 20.6943 22.3571 20.6642 22.3516C20.6368 22.3488 20.6121 22.3379 20.5849 22.3269C20.5766 22.3242 20.5712 22.3242 20.5657 22.3187C20.3934 22.2585 20.254 22.1492 20.0161 22.0508L19.9642 21.9879C19.9423 21.9743 19.9232 21.9579 19.9122 21.925C20.954 20.5578 22.1354 19.5186 24.0577 19.516C24.539 19.516 25.0231 19.4449 25.5043 19.4449C27.4322 19.4449 29.36 19.5953 31.2878 19.5953C32.4719 19.5953 33.656 19.3983 34.8401 19.3983C36.0268 19.3957 37.2109 19.2015 38.395 19.2042C39.5817 19.2042 40.7658 19.4312 41.9499 19.434C43.205 19.4367 44.0501 19.8852 44.3235 21.0554C44.5806 22.163 44.5942 23.3223 44.6161 24.4516C44.6461 25.9665 44.586 27.4102 44.3399 28.8129Z" fill="#444A3E"/>
<path d="M40.2411 25.4245C40.2028 26.2476 40.17 27.0652 40.0743 27.8609C40.0005 28.4816 39.8883 29.0914 39.7051 29.682C39.2895 31.0355 38.5402 32.2606 37.7253 33.4883C36.9049 34.7216 36.1174 35.922 35.0783 36.8189C33.9981 37.7513 32.6992 38.3666 31.3948 38.9435C30.1369 39.5014 28.8243 40.1139 27.3696 40.3518C25.7644 40.6116 24.1619 40.4365 22.6333 40.1658C21.1102 39.8979 19.6718 39.2771 18.2417 38.5033C16.9564 37.806 15.6192 37.2728 14.643 36.3841C13.5929 35.4243 13.0105 34.1009 12.3104 32.9305C11.6131 31.7575 11.1537 30.5079 10.7982 29.1324C10.4674 27.8473 9.92318 26.532 9.8849 25.08C9.84936 23.8358 10.1884 22.6218 10.5138 21.4459C10.8365 20.2811 11.5311 19.2693 12.1327 18.181C12.7343 17.0982 13.0023 15.8376 13.7543 14.9708C14.5501 14.0548 15.5099 13.2645 16.4752 12.5946C17.4432 11.9219 18.6054 11.5336 19.7402 11.1153C20.8176 10.716 21.9443 10.2457 23.1721 10.0789C23.4756 10.0379 23.7764 10.0215 24.0772 10.0215C25.0343 10.0215 25.9696 10.191 26.8665 10.2813C28.1134 10.4043 29.2483 10.768 30.3858 11.2028C31.5207 11.6348 32.6063 12.127 33.6317 12.8489C34.6052 13.5325 35.7729 14.0794 36.6507 15.0063C36.6808 15.0392 36.7108 15.072 36.7382 15.1075C37.1593 15.6325 37.2824 16.4228 37.6652 16.9779C37.7746 17.1365 37.9332 17.2978 37.8976 17.4372C36.4784 17.5083 36.4593 17.7244 35.04 17.6505C34.6462 17.4865 34.3536 16.8931 33.9872 16.5048C32.9809 15.4302 31.6984 14.8888 30.528 14.2926C29.2893 13.6583 28.0751 13.1004 26.686 12.9637C25.3679 12.8297 24.0307 13.0594 22.6088 13.3411C21.3618 13.5899 20.1778 13.8798 19.1167 14.4758C18.0257 15.0856 17.0686 15.8649 16.2236 16.7673C15.3759 17.6724 14.8098 18.7552 14.2657 19.8709C13.7242 20.9783 13.4261 22.1186 13.232 23.3573C13.1773 23.7127 13.1308 24.0682 13.1007 24.4237C13.0242 25.2659 13.0269 26.1081 13.1609 26.9886C13.3605 28.3202 13.7653 29.496 14.3313 30.6336C14.9192 31.8203 15.447 33.0235 16.3521 33.9395C17.2709 34.8719 18.4823 35.3887 19.6445 35.9848C20.793 36.5727 21.9607 36.9802 23.2678 37.1852C24.523 37.3794 25.7918 37.5708 27.1208 37.3548C28.3677 37.1524 29.4916 36.6739 30.5827 36.138C31.7011 35.5856 32.7403 34.954 33.6344 34.1063C34.5286 33.2586 35.2478 32.2769 35.8576 31.1886C36.4538 30.1277 36.7436 28.9683 37.0062 27.7323C37.2276 26.6959 37.3753 26.6112 36.3307 26.6112C34.9033 26.6139 33.4758 26.6631 32.0512 26.6686H31.9035C30.4268 26.6686 28.9502 26.7178 27.4763 26.7178C26.2403 26.7206 25.0042 26.4061 23.7682 26.4061C22.5349 26.4061 21.2989 26.6467 20.0629 26.6467C19.1633 26.6467 19.4094 26.5975 19.3136 25.7361C19.2699 25.3424 19.0511 24.9705 19.0293 24.574C19.0238 24.4756 19.0265 24.3935 19.0402 24.3252C19.1086 23.9396 19.4449 23.956 19.9125 23.9588C21.4794 23.967 23.0463 24.0353 24.6132 24.0353C26.1774 24.0381 27.7443 23.833 29.3112 23.833L34.0091 23.7154C35.576 23.7154 37.1429 23.9724 38.7098 23.9752C39.8775 23.9779 40.2903 24.3499 40.2411 25.4245Z" fill="#444A3E"/>
<path d="M34.7611 29.2186C34.3017 30.3917 33.8259 31.5128 32.9919 32.4097C32.1469 33.3175 31.2691 34.3019 30.1726 34.8707C29.0733 35.4395 27.7826 35.7348 26.5602 35.9043C25.3379 36.0738 24.121 35.6828 22.9069 35.3957C21.6216 35.0922 20.5415 34.5918 19.516 33.9301C18.4304 33.2328 17.3612 32.5765 16.6174 31.5757C15.86 30.5612 15.458 29.3663 15.1052 28.1495C14.7634 26.9518 14.3122 25.7186 14.4134 24.4306C14.5118 23.1482 15.19 22.0626 15.6685 20.9798C16.1744 19.8313 16.5764 18.6364 17.4132 17.7641C18.2691 16.8727 19.4121 16.3367 20.5087 15.7926C21.6052 15.2484 22.7592 14.9777 23.987 14.8382C25.1847 14.7015 26.4591 14.3078 27.6814 14.6086C29.1635 14.9695 30.5718 15.716 31.775 16.6457C31.9199 16.7578 31.9965 17.1625 32.002 17.3485C32.002 17.3594 31.8981 17.5262 31.8926 17.5399C30.2245 17.5453 30.2218 17.2719 28.5537 17.2719C26.8856 17.2719 26.8856 17.302 25.2176 17.302C25.2011 17.302 25.1902 17.2992 25.1738 17.2992C24.5093 17.2883 23.8558 17.4742 23.1885 17.6301C22.0428 17.8981 20.9271 18.4778 19.9782 19.3446C19.3137 19.9516 18.7969 20.7009 18.3812 21.5349C18.2418 21.8111 18.116 22.0982 17.9984 22.3935C17.7687 22.9595 17.621 23.5392 17.5472 24.149V24.1517C17.4734 24.7233 17.4679 25.3194 17.5253 25.951C17.6402 27.2499 17.8672 28.5186 18.5726 29.5769C19.2836 30.6405 20.2817 31.5101 21.4111 32.1363C22.5077 32.7433 23.7601 33.1617 25.0891 33.1672C26.2841 33.1754 27.6186 32.9949 28.8764 32.3769C29.3632 32.1363 29.6394 31.5265 30.0988 31.2285C30.1371 31.2039 30.1562 31.171 30.1535 31.1328C30.1535 31.1273 30.1507 31.1218 30.1507 31.1163C29.9921 31.0835 29.8144 30.914 29.6531 30.9085C28.6194 30.8839 27.5885 30.8292 26.5548 30.8046C25.5239 30.78 24.4903 30.7609 23.4566 30.7417C22.2342 30.7171 20.8095 29.6671 20.279 28.4174H20.6209C21.8924 28.4147 23.1612 27.9991 24.4328 27.9991C25.7044 27.9991 26.9787 28.2534 28.2502 28.2534C29.5136 28.2534 30.7797 28.01 32.043 28.01H32.0649C32.847 28.01 33.6236 28.3436 34.403 28.4038C35.0456 28.453 34.999 28.6171 34.7611 29.2186Z" fill="#444A3E"/>
<path d="M111.936 49.8008C112.557 49.0549 114.085 47.423 115.111 46.2826H116.826L114.028 49.203L117.136 53.8226H115.45L113.037 50.1347L111.936 51.1985V53.8226H110.482V42.9609H111.936L111.936 49.8008Z" fill="#7D6A53"/>
<path d="M123.633 52.119C123.633 52.8112 123.692 53.6122 123.736 53.8223H122.345C122.286 53.6581 122.242 53.2919 122.226 52.8838C121.96 53.3713 121.376 53.9999 119.938 53.9999C118.152 53.9999 117.392 52.8355 117.392 51.6841C117.392 49.9945 118.725 49.2203 120.96 49.2203H122.205V48.613C122.205 47.9735 121.997 47.2165 120.672 47.2165C119.485 47.2165 119.276 47.7928 119.147 48.3734H117.747C117.849 47.2758 118.528 46.0977 120.72 46.1045C122.597 46.1111 123.633 46.8693 123.633 48.5996V52.119ZM122.213 50.1937H121.065C119.609 50.1937 118.87 50.603 118.87 51.6008C118.87 52.3385 119.368 52.8881 120.264 52.8881C121.985 52.8881 122.213 51.7234 122.213 50.4267V50.1937ZM123.461 42.8125L121.174 45.0705H119.829L121.69 42.8125H123.461Z" fill="#7D6A53"/>
<path d="M125.334 48.2255C125.334 47.5754 125.334 46.8993 125.319 46.2814H126.718C126.739 46.4994 126.776 47.0286 126.774 47.3908C127.126 46.7379 127.773 46.1035 128.949 46.1035C130.019 46.1035 130.726 46.6488 131.009 47.4151C131.42 46.719 132.12 46.1035 133.396 46.1035C134.638 46.1035 135.776 46.8428 135.776 48.8678V53.8214H134.348V49.0442C134.348 48.2067 134.047 47.3342 132.932 47.3342C131.771 47.3342 131.274 48.1933 131.274 49.4952V53.8213H129.848V49.0925C129.848 48.1595 129.59 47.3409 128.463 47.3409C127.322 47.3409 126.774 48.231 126.774 49.6405V53.8213H125.334V48.2255Z" fill="#7D6A53"/>
<path d="M138.597 50.3287C138.605 51.748 139.319 52.8048 140.553 52.8048C141.682 52.8048 142.042 52.2422 142.275 51.7088H143.737C143.446 52.6661 142.634 53.999 140.509 53.999C138.117 53.999 137.128 52.0858 137.128 50.1375C137.128 47.8716 138.274 46.1035 140.592 46.1035C143.054 46.1035 143.868 48.0398 143.868 49.7014C143.868 49.9355 143.868 50.1226 143.846 50.3287H138.597ZM142.397 49.3404C142.383 48.1705 141.812 47.2238 140.575 47.2238C139.312 47.2238 138.764 48.1018 138.642 49.3404H142.397Z" fill="#7D6A53"/>
<path d="M145.181 48.1812C145.181 47.5295 145.181 46.8604 145.166 46.2814H146.578C146.615 46.4983 146.636 47.2387 146.635 47.4662C146.927 46.8522 147.541 46.1035 148.972 46.1035C150.405 46.1035 151.488 46.9991 151.488 48.9822V53.8214H150.034V49.1613C150.034 48.0787 149.62 47.3409 148.513 47.3409C147.195 47.3409 146.635 48.3092 146.635 49.789V53.8214H145.181L145.181 48.1812Z" fill="#7D6A53"/>
<path d="M163.089 52.1181C163.089 52.8103 163.148 53.6113 163.193 53.8214H161.802C161.743 53.6572 161.698 53.291 161.682 52.8829C161.417 53.3704 160.832 53.999 159.394 53.999C157.609 53.999 156.848 52.8345 156.848 51.6832C156.848 49.9936 158.181 49.2194 160.416 49.2194H161.662V48.6121C161.662 47.9726 161.453 47.2156 160.128 47.2156C158.942 47.2156 158.733 47.7919 158.604 48.3725H157.204C157.306 47.2749 157.984 46.0968 160.177 46.1035C162.054 46.1102 163.089 46.8684 163.089 48.5987V52.1181ZM161.67 50.1928H160.521C159.066 50.1928 158.326 50.6021 158.326 51.5999C158.326 52.3376 158.825 52.8872 159.72 52.8872C161.441 52.8872 161.67 51.7225 161.67 50.4258V50.1928Z" fill="#7D6A53"/>
<path d="M175.373 42.9609V51.7033C175.373 52.4076 175.373 53.1022 175.388 53.8226H173.99C173.954 53.618 173.926 53.0767 173.919 52.8075C173.549 53.5559 172.807 54.0002 171.592 54.0002C169.66 54.0002 168.464 52.4371 168.464 50.1281C168.464 47.8068 169.75 46.1048 171.845 46.1048C173.131 46.1048 173.724 46.6138 173.919 47.0204V42.9609H175.373ZM169.97 50.0849C169.97 51.838 170.779 52.7859 171.931 52.7859C173.631 52.7859 173.976 51.5053 173.976 49.9623C173.976 48.3615 173.658 47.3193 172.024 47.3193C170.74 47.3193 169.97 48.3344 169.97 50.0849Z" fill="#7D6A53"/>
<path d="M178.405 45.6764L176.983 43.5586H177.991L178.865 44.9657H178.894L179.768 43.5586H180.746L179.353 45.6764H178.405ZM177.265 48.8905C177.265 48.0463 177.25 47.3204 177.206 46.6541H178.346L178.391 48.0609H178.45C178.776 47.0984 179.561 46.4911 180.435 46.4911C180.583 46.4911 180.686 46.506 180.805 46.5355V47.7647C180.671 47.7352 180.538 47.7203 180.36 47.7203C179.442 47.7203 178.79 48.4164 178.613 49.3941C178.583 49.5717 178.553 49.7791 178.553 50.0014V53.8224H177.265L177.265 48.8905Z" fill="#7D6A53"/>
<path d="M182.496 50.4743C182.526 52.2369 183.651 52.9625 184.955 52.9625C185.888 52.9625 186.451 52.7995 186.94 52.5924L187.162 53.5254C186.703 53.7328 185.918 53.9697 184.777 53.9697C182.57 53.9697 181.252 52.5182 181.252 50.3557C181.252 48.1932 182.526 46.4902 184.614 46.4902C186.954 46.4902 187.577 48.549 187.577 49.867C187.577 50.1337 187.547 50.3411 187.532 50.4743L182.496 50.4743ZM186.318 49.5413C186.332 48.7117 185.977 47.4232 184.511 47.4232C183.192 47.4232 182.615 48.6378 182.511 49.5413H186.318Z" fill="#7D6A53"/>
<path d="M189.332 46.6543L190.739 50.6828C190.976 51.3345 191.168 51.9269 191.317 52.5193H191.361C191.524 51.9269 191.731 51.3345 191.968 50.6828L193.36 46.6543H194.723L191.909 53.8226H190.665L187.939 46.6543H189.332Z" fill="#7D6A53"/>
<path d="M202 50.1781C202 52.8293 200.163 53.9846 198.43 53.9846C196.49 53.9846 194.994 52.5626 194.994 50.2967C194.994 47.8973 196.564 46.4902 198.548 46.4902C200.607 46.4902 202 47.9861 202 50.1781ZM196.312 50.2523C196.312 51.8221 197.215 53.0069 198.489 53.0069C199.733 53.0069 200.667 51.837 200.667 50.2225C200.667 49.0079 200.059 47.4676 198.519 47.4676C196.979 47.4676 196.312 48.8896 196.312 50.2523Z" fill="#7D6A53"/>
<path d="M79.3586 20.0379C78.1236 17.5673 76.0541 16.3655 72.9828 16.3655C67.7754 16.3655 64.6375 20.1711 64.6375 26.5135C64.6375 32.2884 67.6419 35.8598 72.5154 35.8598C73.9177 35.8598 75.1527 35.6263 76.2876 35.192C76.3877 33.6904 76.4212 32.789 76.4212 31.721C76.4212 30.1183 76.3542 28.95 76.1542 27.1478C77.2557 27.281 77.8566 27.3479 78.6911 27.3479C79.4255 27.3479 80.0597 27.3145 81.295 27.1813C81.128 28.9165 81.0611 30.1518 81.0611 32.9556C81.0611 34.3575 81.0945 35.1257 81.1946 36.2272C77.0887 37.4618 74.9192 37.8292 72.0483 37.8292C64.1701 37.8292 59.1963 33.3899 59.1963 26.4466C59.1963 19.0696 64.6041 14.3633 73.0497 14.3633C76.0541 14.3633 78.0236 14.8304 80.7275 16.2323C80.0596 18.3355 79.893 19.0361 79.7926 20.0044L79.3586 20.0379Z" fill="#444A3E"/>
<path d="M94.0767 25.9474C93.4426 25.6135 92.9751 25.5131 92.3742 25.5131C91.1058 25.5131 90.0709 26.1475 89.5703 27.2489C89.2363 27.9167 89.1363 28.7178 89.1363 30.7875C89.1363 32.8901 89.2032 35.0602 89.3699 37.3969C87.7678 37.2631 87.4004 37.2296 86.9664 37.2296C86.399 37.2296 85.965 37.2631 84.563 37.3969C84.7968 35.1934 84.8634 33.2909 84.8634 29.5523C84.8634 26.2478 84.83 25.0126 84.563 21.5744C85.7314 21.6747 86.2654 21.7082 86.8998 21.7082C87.5342 21.7082 88.0348 21.6747 89.0028 21.5744C88.9693 22.5761 88.9359 23.5438 88.9359 25.647C90.1043 22.7093 91.7736 21.207 93.8766 21.207C94.0435 21.207 94.177 21.207 94.444 21.2405C94.3437 22.0086 94.3105 22.4423 94.3105 23.1436C94.3105 23.8442 94.3437 24.4117 94.444 25.6469L94.0767 25.9474Z" fill="#444A3E"/>
<path d="M96.7474 26.0478C96.7474 25.113 96.6473 24.7456 96.2803 23.5103C98.2829 21.8414 100.086 21.207 102.656 21.207C105.193 21.207 107.029 22.0087 107.864 23.444C108.531 24.6124 108.598 25.1464 108.598 29.5188V31.7552C108.598 34.025 108.665 34.7263 108.832 35.1934C109.032 35.6611 109.633 36.0278 110.2 36.0278C110.3 36.0278 110.534 35.995 110.734 35.9616V36.5625C109.666 37.2631 108.731 37.5636 107.596 37.5636C105.894 37.5636 104.959 36.8958 104.325 35.2603C102.856 37.0965 101.721 37.7637 99.9187 37.7637C97.1148 37.7637 95.2788 36.0613 95.2788 33.491C95.2788 32.1225 95.7794 30.9542 96.7474 30.1866C97.4484 29.5857 98.1828 29.2853 99.8187 28.8181C102.422 28.1169 102.556 28.0834 103.157 27.7167C103.658 27.3827 103.958 26.8153 103.958 26.1809C103.958 24.512 102.656 23.2767 100.92 23.2767C99.2512 23.2767 97.9158 24.245 97.1814 26.0477L96.7474 26.0478ZM104.158 29.7195C104.158 29.3522 104.158 29.1849 104.225 28.7178C103.157 29.0852 102.322 29.4525 101.521 29.8862C100.353 30.5205 99.9522 31.3215 99.9522 32.9905C99.9522 34.6594 100.586 35.5273 101.788 35.5273C102.623 35.5273 103.391 35.0602 103.825 34.2927C104.092 33.8249 104.192 33.0909 104.192 31.6889C104.192 31.4554 104.192 31.0211 104.158 30.3204V29.7195Z" fill="#444A3E"/>
<path d="M117.554 16.133C117.554 17.535 116.386 18.7033 114.984 18.7033C113.548 18.7033 112.38 17.535 112.38 16.133C112.38 14.6642 113.515 13.5293 114.984 13.5293C116.419 13.5293 117.554 14.6977 117.554 16.133ZM115.117 21.7413C115.918 21.7413 116.452 21.7079 117.42 21.574C117.287 23.5434 117.153 27.3824 117.153 29.6188C117.153 32.2895 117.254 35.3268 117.42 37.3966C116.452 37.2628 115.918 37.2293 115.017 37.2293C114.115 37.2293 113.548 37.2628 112.446 37.3966C112.68 34.459 112.78 31.6551 112.78 28.6506C112.78 25.9136 112.68 24.0775 112.446 21.5741C113.715 21.7079 114.316 21.7413 115.117 21.7413Z" fill="#444A3E"/>
<path d="M122.862 21.7416C123.663 21.7416 124.163 21.7082 125.065 21.5744C125.031 22.0749 125.031 22.1084 124.998 22.9428C124.965 23.4775 124.965 23.6106 124.898 24.0778C126.467 22.0421 127.969 21.207 130.039 21.207C131.507 21.207 132.776 21.6747 133.71 22.6095C134.745 23.5772 135.179 24.8125 135.179 26.6815C135.179 27.2489 135.146 28.05 135.113 28.9179C135.079 30.1866 135.046 31.3549 135.046 32.1225C135.046 33.7914 135.079 35.3272 135.213 37.3969C134.178 37.2631 133.61 37.2296 132.642 37.2296C131.808 37.2296 131.374 37.2631 130.439 37.3969C130.539 36.262 130.64 32.3226 130.64 30.7206C130.64 28.4842 130.539 26.7818 130.372 26.1475C130.039 24.7455 129.137 23.978 127.836 23.978C126.567 23.978 125.599 24.8124 125.265 26.2143C125.031 27.1491 124.998 27.9167 124.998 31.4553C124.998 33.7914 125.031 35.3606 125.132 37.3969C124.163 37.2631 123.696 37.2296 122.828 37.2296C122.027 37.2296 121.459 37.263 120.358 37.3634C120.558 35.1933 120.658 32.6565 120.658 29.7523C120.658 27.2823 120.558 24.9456 120.358 21.5743C121.493 21.7081 122.06 21.7416 122.862 21.7416Z" fill="#444A3E"/>
<path d="M147.217 21.7412C147.15 22.1748 147.15 22.3086 147.15 22.5422L147.183 23.2094C147.217 23.2763 147.217 23.3767 147.217 23.477C146.649 23.4101 146.382 23.4101 145.915 23.3767C145.681 23.3432 145.08 23.3432 144.146 23.3097L143.812 23.2763C143.778 24.0445 143.778 24.1777 143.778 26.5813V30.2531C143.778 33.5909 143.778 34.7258 143.879 37.3965C142.844 37.2627 142.31 37.2292 141.542 37.2292C140.808 37.2292 140.207 37.2627 139.139 37.3965V36.7621L139.239 33.3574C139.372 27.0485 139.372 26.481 139.372 26.0139C139.372 24.9787 139.372 24.6783 139.339 23.2429H138.938C138.504 23.2763 138.104 23.2763 138.004 23.2763L136.969 23.3432L136.535 23.3767C136.602 22.9424 136.602 22.7423 136.602 22.4753C136.602 22.2418 136.602 22.0745 136.535 21.6743L139.372 21.7747C139.94 16.2333 142.744 12.4277 146.315 12.4277C147.183 12.4277 148.018 12.6284 148.953 13.0621C148.385 14.0967 147.851 16.0995 147.784 17.4351L147.484 17.5348C146.616 16.4334 145.514 15.8994 144.112 15.8994C142.944 15.8994 142.143 16.6341 142.143 17.6686C142.143 18.4028 142.243 18.6698 143.311 20.5059C143.578 21.0065 143.712 21.3404 143.778 21.7746L147.217 21.7412Z" fill="#444A3E"/>
<path d="M163.857 29.6191C163.857 34.8266 160.953 37.7637 155.712 37.7637C150.471 37.7637 147.601 34.8601 147.601 29.4853C147.601 24.1447 150.471 21.207 155.712 21.207C161.054 21.207 163.857 24.1112 163.857 29.6191ZM152.508 29.4853C152.508 34.4593 153.409 36.4286 155.712 36.4286C158.016 36.4286 158.95 34.4258 158.95 29.5857C158.95 24.5455 158.016 22.5426 155.712 22.5426C153.409 22.5426 152.508 24.512 152.508 29.4853Z" fill="#444A3E"/>
<path d="M175.678 25.9474C175.044 25.6135 174.577 25.5131 173.976 25.5131C172.707 25.5131 171.672 26.1475 171.172 27.2489C170.838 27.9167 170.738 28.7178 170.738 30.7875C170.738 32.8901 170.804 35.0602 170.971 37.3969C169.369 37.2631 169.002 37.2296 168.568 37.2296C168.001 37.2296 167.567 37.2631 166.165 37.3969C166.398 35.1934 166.465 33.2909 166.465 29.5523C166.465 26.2478 166.432 25.0126 166.165 21.5744C167.333 21.6747 167.867 21.7082 168.501 21.7082C169.135 21.7082 169.636 21.6747 170.604 21.5744C170.571 22.5761 170.537 23.5438 170.537 25.647C171.706 22.7093 173.375 21.207 175.478 21.207C175.645 21.207 175.778 21.207 176.045 21.2405C175.945 22.0086 175.912 22.4423 175.912 23.1436C175.912 23.8442 175.945 24.4117 176.045 25.6469L175.678 25.9474Z" fill="#444A3E"/>
<path d="M192.253 37.3969C191.218 37.2632 190.717 37.2297 189.883 37.2297C189.048 37.2297 188.514 37.2631 187.479 37.3969C187.713 33.8584 187.746 32.8238 187.746 30.0863C187.746 27.3159 187.646 26.1141 187.312 25.3465C186.911 24.4452 186.177 23.978 185.176 23.978C184.007 23.978 183.106 24.6452 182.739 25.8136C182.472 26.7484 182.405 27.783 182.405 31.5216C182.405 33.1906 182.505 35.8278 182.605 37.3969C181.437 37.2631 180.903 37.2296 180.268 37.2296C179.667 37.2296 179.167 37.2631 177.832 37.3969C177.999 34.6259 178.099 31.6889 178.099 28.7513C178.099 26.0806 178.032 24.1447 177.832 21.5744C178.866 21.7082 179.367 21.7417 180.268 21.7417C181.103 21.7417 181.57 21.7082 182.472 21.5744C182.405 22.1084 182.371 22.5761 182.338 24.0449C183.573 22.1753 185.309 21.207 187.379 21.207C189.582 21.207 190.984 22.1753 191.752 24.2785C193.054 22.2087 194.789 21.207 196.926 21.207C198.495 21.207 199.93 21.7751 200.798 22.7762C201.633 23.711 202 24.8794 202 26.715C202 27.1158 201.967 28.3505 201.933 29.4853C201.866 30.3867 201.866 31.1214 201.866 31.8555C201.866 32.6565 201.967 36.0613 202 37.3969C200.798 37.2631 200.231 37.2296 199.463 37.2296C198.695 37.2296 198.194 37.2631 197.26 37.3969C197.427 34.1254 197.527 31.4219 197.527 28.7178C197.527 26.8822 197.427 26.0143 197.059 25.313C196.692 24.4786 195.858 23.978 194.889 23.978C193.788 23.978 192.92 24.5789 192.486 25.6135C192.186 26.3811 192.019 27.9168 192.019 30.2201C192.019 32.156 192.086 33.8249 192.219 36.9292L192.253 37.3969Z" fill="#444A3E"/>
</svg>
